<?xml version="1.0" encoding="UTF-8"?>
<svg id="Calque_2" data-name="Calque 2" xmlns="http://www.w3.org/2000/svg" viewBox="0 0 1618.62 1159.69">
  <defs>
    <style>
      .cls-1 {
        fill: #f2d9df;
      }

      .cls-1, .cls-2 {
        stroke-width: 0px;
      }

      .cls-2 {
        fill: #0e0e18;
      }
    </style>
  </defs>
  <g id="Capa_2" data-name="Capa 2">
    <g>
      <path class="cls-1" d="M1297.08,90.27c-.84-1.45-1.6-2.96-2.49-4.38-6.16-9.96-13.94-18.93-22.82-26.9-28.04-25.17-67.34-40.25-103.54-43.79-130.36-12.73-228.13,46.83-299.04,153.1-65.99,98.91-104.67,223.91-200.77,299.52-22.91,18.03-52.59,47.84-85.17,71.62-1.2,8.14-2.79,15.85-4.66,22.6-8.72,31.18-23.34,61.39-34.14,91.12-1.52,4.18-6.13,6.32-10.3,4.81-4.17-1.52-6.32-6.13-4.8-10.3,11.21-30.74,25.62-60.67,33.76-89.94.49-1.77.96-3.64,1.42-5.58-12.8,7.96-25.93,14.53-39.16,18.77-.18,8.84-1.47,17.64-3.42,24.7-4.27,15.28-11.27,29.68-16.27,43.48-1.52,4.17-6.14,6.32-10.3,4.8-4.17-1.52-6.32-6.13-4.8-10.3,5.42-14.82,12.2-28.93,15.89-42.29,1.25-4.45,2.27-10.44,2.69-16.46-12.46,2.02-24.95,1.59-37.28-2.08-2.77,2.7-5.54,5.53-8.26,8.46-12.15,13.03-23.68,27.82-32.5,40.04h0c-2.6,3.6-7.62,4.41-11.22,1.82-3.6-2.6-4.42-7.62-1.82-11.22,9.11-12.63,20.97-27.86,33.78-41.6,1.32-1.41,2.66-2.8,4-4.17-.41-.23-.83-.4-1.25-.64-7.18-4.08-14.2-7.46-21.09-10.32-16.89,20.04-32.48,40.41-45.34,58.24h0c-2.6,3.6-7.62,4.41-11.23,1.82-3.6-2.6-4.41-7.62-1.82-11.22,12.07-16.73,26.46-35.65,42.16-54.55-14.86-4.39-29.08-6.16-42.75-5.89-5.5.11-10.91.5-16.24,1.21-10.76,1.44-21.2,4.03-31.36,7.43-5.21,1.75-10.36,3.71-15.45,5.84-4.7,1.97-9.36,4.05-13.96,6.29-3.14,1.52-6.24,3.12-9.29,4.77-6.86,3.72-13.44,7.86-19.69,12.4-10.44,7.59-19.82,16.48-27.58,27.08-1.18,1.62-2.41,3.2-3.51,4.89-5.34,8.2-10.37,17.36-14.86,26.96-9.13,19.54-15.81,41.04-16.81,60.9-.39,7.89,3.53,19.14.16,26.46-3.45,7.47-12.42,9.2-18.93,13.15-38.83,23.63,5.58,67.8,26,86.68,8.61,7.96,17.69,15.04,27.02,21.73,4.42,3.17,8.88,6.27,13.39,9.3,13.37,8.96,27.05,17.5,40.52,26.77,23.33,16.05,45,26.53,72.69,32.19,1,.21,1.94.45,2.95.64,5.17.97,10.36,1.78,15.55,2.52,30.61,4.35,61.54,4.73,92.39,2.71,40.41-48.67,73.07-103.9,111.22-155.97h0c2.62-3.58,7.66-4.35,11.23-1.73,3.58,2.62,4.36,7.66,1.73,11.23-34.57,47.12-65.18,97.88-102.16,144.66,19.4-1.93,38.72-4.62,57.87-7.71,33.04-5.33,65.8-12.25,98.57-19,14.35-2.96,28.68-6.41,42.95-10.29,19.52-33.55,37.14-68.85,54.5-105.12,1.91-4.01,6.71-5.7,10.72-3.79,4,1.92,5.7,6.71,3.78,10.72-14.97,31.3-30.21,62.06-46.8,91.77,35.48-10.85,70.33-24.29,103.67-39.51,71.15-32.5,146.52-62.16,213.78-103.52.08-.18.18-.37.25-.55,16.98-38.37,30.72-77.77,40.05-118.54,14.14-61.72,18.37-125.81,28.93-189.55h0c.73-4.38,4.87-7.34,9.25-6.61,4.38.73,7.34,4.87,6.61,9.25-10.43,62.68-14.63,127.1-29.12,190.5-7.84,34.26-18.71,67.46-31.88,99.83,7.14-4.87,14.2-9.84,21.09-15.05,41.01-31.02,79.02-68.08,111.03-108.31,24.45-30.72,45.49-64.41,63.23-99.92,2.08-27.25,2.82-54.86,2.82-82.86,0-16.66-.25-33.46-.62-50.38-.1-4.44,3.42-8.12,7.86-8.21,4.44-.1,8.11,3.42,8.21,7.86.37,17,.62,33.91.62,50.73,0,14.36-.22,28.65-.68,42.9,20.04-48.08,34.48-98.57,43.41-148.99.8-4.47,1.53-8.99,2.22-13.54,1.3-8.59,2.38-17.32,3.25-26.11,6.15-62.02.79-127.55-28.04-177.37Z"/>
      <path class="cls-2" d="M366.79,516.02c-5.59-16.71-15.86-37.39-28.48-54.5-6.32-8.55-13.23-16.21-20.74-21.98-3.75-2.89-7.68-5.31-11.83-7.05-4.15-1.74-8.56-2.8-13.12-2.8-5.84-.03-11.82,1.85-16.99,5.54-5.21,3.68-9.69,8.99-13.65,15.88-15.05,26.31-24.36,63.2-30.52,101.88-4.68,29.57-7.38,60.11-8.86,87.44,4.49-9.6,9.52-18.77,14.86-26.96,1.11-1.7,2.33-3.28,3.51-4.89,1.53-17.49,3.59-35.5,6.37-53.07,5.92-37.66,15.26-73.29,28.59-96.38,3.11-5.43,6.23-8.81,8.97-10.74,2.77-1.92,5.11-2.57,7.73-2.6,2.04,0,4.33.48,6.9,1.55,4.49,1.86,9.7,5.64,14.88,10.84,7.8,7.78,15.55,18.63,22.05,29.98,6.52,11.35,11.84,23.23,15.08,32.98,2.55,7.62,4.74,15.54,6.76,23.63,5.32-.71,10.74-1.11,16.24-1.21-2.27-9.29-4.75-18.51-7.74-27.5Z"/>
      <path class="cls-2" d="M295.22,552.01c1.25-2.19,2.37-3.29,3.02-3.73.68-.45.82-.43,1.22-.46.3,0,.83.07,1.63.41,1.39.56,3.5,2.01,5.7,4.22,1.55,1.55,3.14,3.46,4.7,5.56,5.09-2.14,10.23-4.09,15.45-5.84-.8-1.21-1.57-2.46-2.43-3.62-3.17-4.27-6.64-8.17-10.65-11.26-2.01-1.54-4.16-2.88-6.55-3.88-2.38-1-5.03-1.66-7.85-1.66-3.62-.03-7.4,1.18-10.49,3.39-3.11,2.21-5.6,5.23-7.7,8.88-5.89,10.34-9.85,23.41-12.73,37.45,6.25-4.54,12.82-8.68,19.69-12.4,2.03-6.64,4.36-12.52,6.98-17.05Z"/>
      <path class="cls-2" d="M1560.09,4.89c-1.71-4.02-6.3-5.93-10.37-4.32-9.3,3.68-16.33,8.79-20.84,15.39-4.52,6.59-6.15,14.19-6.13,21.66.02,8.39,1.87,16.93,4.18,25.82,6.3,23.98,11.67,45.32,11.66,68.41,0,3.05-.09,6.13-.29,9.26-1.57,25.35-7.3,53.02-19.23,75.31-5.95,11.16-13.41,20.97-22.59,28.71-9.19,7.74-20.09,13.48-33.38,16.52-5.29,1.2-10.22,1.75-14.87,1.75-10.73-.02-19.95-2.87-28.41-7.85-12.66-7.46-23.48-20.05-32.45-34.78-8.99-14.71-16.12-31.41-21.85-46.58-8.09-21.31-19.02-47.52-34.73-69.98-7.86-11.23-16.95-21.54-27.62-29.75-9.23-7.09-19.71-12.57-31.41-15.49,8.89,7.97,16.66,16.94,22.82,26.9.89,1.43,1.64,2.93,2.49,4.38,11.88,10.18,22.11,24.12,30.64,39.27,9.43,16.69,16.85,34.71,22.77,50.36,7.91,20.84,18.45,45.1,33.84,64.72,7.71,9.8,16.68,18.48,27.31,24.77,10.61,6.3,22.92,10.11,36.6,10.09,5.91,0,12.06-.7,18.45-2.15,15.76-3.59,29.16-10.61,40.17-19.9,16.54-13.97,27.73-32.85,35.14-53.08,7.41-20.26,11.09-41.98,12.37-62.23.21-3.47.32-6.89.32-10.27,0-25.63-5.9-48.5-12.18-72.49-2.21-8.39-3.67-15.82-3.66-21.74.03-5.34,1.05-9.23,3.32-12.59,1.42-2.07,3.47-4.11,6.55-6.05,17.39,39.78,37.12,78.78,47.09,119.47,4.51,18.38,6.75,37.39,6.74,56.43.01,34.72-7.42,69.56-21.84,100.97-10.48,22.88-25.51,42.81-44.11,57.55-18.61,14.75-40.76,24.35-66.02,26.75-3.9.36-7.69.54-11.39.54-27.25-.04-49.37-9.5-68.73-25.02-19.3-15.52-35.54-37.27-49.57-61.15-5.05-8.57-10.17-17.76-15.77-26.88-.87,8.79-1.94,17.52-3.25,26.11,1.72,2.98,3.43,5.97,5.16,8.92,14.61,24.84,31.8,48.16,53.35,65.52,21.5,17.37,47.68,28.61,78.81,28.57,4.21,0,8.51-.2,12.9-.62,28.46-2.67,53.68-13.63,74.5-30.15,20.82-16.52,37.3-38.52,48.73-63.44,15.41-33.61,23.3-70.67,23.3-107.68,0-20.29-2.37-40.58-7.2-60.26-11.31-45.92-33.59-88.03-51.32-129.73Z"/>
      <path class="cls-2" d="M251.71,1033.16c44.2-24.21,80.78-55.09,113.29-89.8,6.89-7.36,13.57-14.92,20.13-22.61-5.19-.74-10.38-1.55-15.55-2.52-1.01-.2-1.96-.44-2.95-.64-4.39,5-8.83,9.94-13.36,14.79-31.65,33.79-66.87,63.45-109.28,86.69-25.13,13.78-53.22,28.7-82.21,40.1-28.98,11.43-58.8,19.28-87.23,19.27-3.76,0-7.5-.14-11.21-.42-12.6-.93-25.11-5.18-33.87-11.2-4.39-3-7.83-6.39-10.06-9.84-2.23-3.46-3.32-6.87-3.33-10.48,0-3.05.78-6.37,2.84-10.21,2.05-3.83,5.45-8.13,10.59-12.69,9.79-8.7,21.54-15.94,33.98-22.7,12.44-6.79,25.55-13.09,37.99-20.18,32.48-18.52,63.33-39.58,91.83-64.07,21.28-18.29,40.9-38.05,60.11-58.01-4.51-3.03-8.97-6.13-13.39-9.3-18.5,19.18-37.2,37.94-57.19,55.11-27.6,23.72-57.59,44.21-89.31,62.29-11.77,6.72-24.81,13-37.72,20.03-12.91,7.04-25.71,14.83-36.96,24.8-6.25,5.55-10.92,11.23-14.08,17.1C1.59,1034.51,0,1040.59,0,1046.49c-.01,7.03,2.26,13.62,5.92,19.24,5.52,8.45,13.97,14.94,23.74,19.71,9.79,4.74,21,7.73,32.46,8.61,4.13.31,8.27.46,12.42.46,31.38-.02,63.01-8.53,93.13-20.38,30.11-11.86,58.76-27.12,84.04-40.97Z"/>
      <path class="cls-2" d="M764.14,775.74c-4-1.91-8.8-.22-10.72,3.79-17.36,36.28-34.99,71.57-54.5,105.12-7.48,12.85-15.21,25.46-23.34,37.75-29.37,44.37-63.59,84.75-107.22,119.27-27.49,21.75-58.58,45.65-91.51,64.82-32.93,19.19-67.62,33.55-102.13,36.73-2.73.25-5.48.38-8.22.38-14.28.03-28.27-3.49-37.96-9.36-4.87-2.91-8.63-6.35-11.11-10.05-2.47-3.71-3.76-7.6-3.77-12.2-.02-6.62,2.9-15.25,11.34-25.77,9.5-11.82,21.46-22.3,34.27-32.37,12.8-10.08,26.41-19.72,39.08-30.09,33.14-27.13,63.93-56.8,91.41-89.9,3.34-4.02,6.53-8.13,9.77-12.21,36.98-46.79,67.59-97.54,102.16-144.66,2.62-3.58,1.85-8.61-1.73-11.23-3.58-2.62-8.61-1.85-11.23,1.73h0c-38.15,52.07-70.81,107.3-111.22,155.97-.04.05-.07.09-.11.14-26.73,32.18-56.76,61.14-89.22,87.73-12.07,9.88-25.62,19.5-38.84,29.89-13.22,10.41-26.14,21.62-36.86,34.94-9.95,12.37-14.88,24.42-14.89,35.84-.02,7.83,2.42,15.11,6.5,21.16,6.15,9.11,15.64,15.6,26.5,19.95,10.89,4.34,23.29,6.55,35.91,6.56,3.23,0,6.47-.14,9.7-.45,37.93-3.53,74.62-18.98,108.74-38.85,34.12-19.87,65.76-44.25,93.39-66.11,45.22-35.77,80.6-77.59,110.65-123,11.39-17.21,22.01-34.93,32.13-53.05,16.59-29.71,31.83-60.47,46.8-91.77,1.92-4,.22-8.8-3.78-10.72Z"/>
      <path class="cls-2" d="M1268.08,354.79c-4.44.09-7.96,3.77-7.86,8.21.37,16.92.62,33.72.62,50.38,0,28-.74,55.6-2.82,82.86-4.85,63.16-17.02,124.43-44.7,184.2-14.71,31.81-31.68,67.17-52.42,99.14-20.73,31.98-45.21,60.46-74.58,78.85-13.12,8.28-28.68,13-41.54,12.96-9.26,0-16.84-2.37-21.79-6.59-2.5-2.14-4.48-4.74-5.95-8.18-1.45-3.43-2.36-7.75-2.36-13.2,0-3.9.47-8.38,1.55-13.43,3.14-14.83,9.09-29.59,15.98-44.36,6.88-14.77,14.67-29.52,21.3-44.49,3.17-7.16,6.2-14.39,9.14-21.63,13.16-32.36,24.04-65.57,31.88-99.83,14.49-63.4,18.69-127.82,29.12-190.5.73-4.38-2.23-8.52-6.61-9.25-4.38-.73-8.52,2.23-9.25,6.61h0c-10.57,63.74-14.79,127.82-28.93,189.55-9.33,40.78-23.07,80.18-40.05,118.54-.08.18-.17.37-.25.55-6.27,14.1-13.9,28.6-20.92,43.66-7.1,15.25-13.58,31.08-17.13,47.81-1.27,5.99-1.9,11.57-1.9,16.77,0,7.23,1.22,13.75,3.62,19.45,3.57,8.56,9.91,15.02,17.45,18.96,7.55,3.96,16.18,5.62,25.09,5.63,16.61-.04,34.52-5.69,50.09-15.42,32.26-20.26,58.02-50.6,79.52-83.72,21.49-33.13,38.73-69.16,53.53-101.13,34.79-75.16,45.76-152.19,48.33-230.92.46-14.25.68-28.54.68-42.9,0-16.83-.25-33.74-.62-50.73-.1-4.44-3.77-7.96-8.21-7.86Z"/>
      <path class="cls-2" d="M563.1,557.72c-8.14,29.27-22.55,59.2-33.76,89.94-1.52,4.17.64,8.79,4.8,10.3,4.18,1.52,8.79-.63,10.3-4.81,10.79-29.73,25.42-59.95,34.14-91.12,1.87-6.75,3.46-14.46,4.66-22.6,1.47-9.94,2.36-20.54,2.37-31-.04-15.36-1.8-30.26-6.97-42.36-2.61-6.04-6.16-11.48-11.18-15.55-4.98-4.09-11.52-6.51-18.57-6.46-6.58,0-13.5,1.91-20.9,5.54-27.18,13.4-55.54,38.77-82.27,67.39-9.8,10.51-19.34,21.46-28.45,32.43-15.7,18.89-30.09,37.81-42.16,54.55-2.6,3.6-1.78,8.62,1.82,11.22,3.6,2.59,8.62,1.78,11.23-1.82h0c12.86-17.83,28.45-38.2,45.34-58.24,7.77-9.22,15.79-18.38,23.99-27.17,25.96-27.91,53.64-52.22,77.59-63.92,5.83-2.86,10.43-3.9,13.82-3.89,3.66.04,6.05,1,8.45,2.88,3.55,2.8,6.9,8.63,9.02,16.76,2.16,8.07,3.16,18.16,3.16,28.66.02,15.05-2.04,31.03-5.02,43.7-.45,1.94-.93,3.81-1.42,5.58Z"/>
      <path class="cls-2" d="M506.45,591.29c-3.69,13.36-10.46,27.47-15.89,42.29-1.52,4.17.63,8.78,4.8,10.3,4.17,1.52,8.78-.63,10.3-4.8,5-13.8,11.99-28.2,16.27-43.48,1.95-7.05,3.24-15.86,3.42-24.7.01-.61.07-1.21.07-1.82-.04-7.63-.84-15.11-3.64-21.73-1.43-3.3-3.44-6.47-6.52-8.98-3.04-2.52-7.23-4.05-11.45-4-3.96,0-7.85,1.14-11.77,3.05-12.31,6.1-24.53,16.63-36.2,28.66-1.34,1.38-2.67,2.76-4,4.17-12.81,13.75-24.66,28.97-33.78,41.6-2.6,3.6-1.78,8.62,1.82,11.22,3.6,2.6,8.62,1.78,11.22-1.82h0c8.82-12.23,20.35-27.02,32.5-40.04,2.72-2.93,5.49-5.76,8.26-8.46,9.54-9.3,19.13-16.95,27.27-20.9,2.35-1.16,3.91-1.42,4.68-1.41.84.05.88.11,1.34.43.64.44,1.98,2.37,2.84,5.73.89,3.31,1.36,7.77,1.35,12.48,0,1.89-.07,3.82-.21,5.75-.42,6.02-1.44,12.01-2.69,16.46Z"/>
      <path class="cls-2" d="M243.38,672.28c-6.72.01-12.24,1.94-16.1,3.8-3.87,1.88-6.14,3.75-6.51,4.05-3.41,2.84-3.87,7.92-1.03,11.32,2.82,3.39,7.85,3.86,11.26,1.07h0s1.48-1.15,3.74-2.19c2.27-1.05,5.29-1.98,8.63-1.98,2.7.01,5.64.55,9.04,2.3,3.38,1.75,7.27,4.77,11.45,10.03,2.77,3.47,7.82,4.04,11.3,1.29,3.47-2.76,4.05-7.82,1.29-11.3-5.33-6.71-10.96-11.36-16.64-14.3-5.68-2.95-11.37-4.11-16.42-4.1Z"/>
      <path class="cls-2" d="M357.18,692.95h0c3.67,2.5,8.67,1.54,11.17-2.13,2.49-3.68,1.54-8.67-2.14-11.16-.3-.2-3.38-2.28-8.28-4.38-4.91-2.09-11.66-4.28-19.49-4.3-5.6-.01-11.8,1.2-17.69,4.53-5.9,3.3-11.3,8.66-15.64,16.14-2.23,3.84-.93,8.76,2.91,10.99,3.84,2.23,8.76.92,10.99-2.91h0c3.16-5.43,6.45-8.41,9.62-10.21,3.18-1.79,6.41-2.45,9.8-2.46,4.69-.02,9.56,1.44,13.15,3,1.8.77,3.27,1.54,4.26,2.11.49.28.86.51,1.09.65l.23.14Z"/>
      <path class="cls-2" d="M247.53,804.67c3.73,2.34,8.15,3.76,12.79,3.76,4.64,0,9.07-1.42,12.79-3.76,4.72-2.96,8.38-7.27,11.16-12.29,7.38,9.73,19.04,16.05,32.21,16.05,22.32,0,40.42-18.06,40.42-40.37,0-4.44-3.6-8.04-8.04-8.04s-8.04,3.6-8.04,8.04c0,6.73-2.71,12.75-7.12,17.17-4.43,4.41-10.46,7.12-17.22,7.12-6.75,0-12.79-2.71-17.22-7.12-4.41-4.42-7.12-10.44-7.12-17.17,0-.85-.17-1.65-.41-2.41,4.11-4.65,7.61-10.43,7.61-13.71,0-6.08-34.95-7.67-34.95-1.59,0,3.93,4.89,12.11,9.86,17.42,0,.11-.03.2-.03.3.02,7.45-2.11,14.07-5.04,18.34-1.45,2.15-3.07,3.68-4.57,4.62-1.52.94-2.87,1.32-4.29,1.32-1.42,0-2.77-.39-4.29-1.32-2.26-1.39-4.76-4.21-6.6-8.24-1.85-4.01-3.02-9.14-3.02-14.72,0-4.44-3.6-8.04-8.04-8.04s-8.04,3.6-8.04,8.04c.02,10.4,2.8,19.95,7.82,27.37,2.52,3.71,5.63,6.9,9.37,9.24Z"/>
      <path class="cls-2" d="M321.55,746.51c-2.79,0-5.06,2.26-5.06,5.06s2.27,5.05,5.06,5.05,5.06-2.26,5.06-5.05-2.26-5.06-5.06-5.06Z"/>
      <path class="cls-2" d="M312.07,764.15c-2.8,0-5.06,2.26-5.06,5.05s2.27,5.06,5.06,5.06,5.06-2.26,5.06-5.06-2.27-5.05-5.06-5.05Z"/>
      <circle class="cls-2" cx="330.02" cy="769.85" r="5.06"/>
      <path class="cls-2" d="M258.18,757.59c1.68,0,3.04-2.26,3.04-5.06s-1.36-5.06-3.04-5.06-3.02,2.27-3.02,5.06,1.35,5.06,3.02,5.06Z"/>
      <path class="cls-2" d="M252.5,765.11c-1.68,0-3.03,2.26-3.03,5.06s1.36,5.06,3.03,5.06,3.03-2.26,3.03-5.06-1.36-5.06-3.03-5.06Z"/>
      <path class="cls-2" d="M263.26,775.87c1.67,0,3.03-2.27,3.03-5.06s-1.36-5.05-3.03-5.05-3.03,2.26-3.03,5.05,1.36,5.06,3.03,5.06Z"/>
      <path class="cls-2" d="M55.98,1024.27l-22.77,22.78c-3.14,3.13-3.14,8.23,0,11.37,3.14,3.14,8.23,3.14,11.37,0l22.77-22.78c3.14-3.14,3.14-8.23,0-11.37-3.14-3.14-8.23-3.14-11.37,0Z"/>
      <path class="cls-2" d="M115.05,1024.15l-34.83,33.5c-3.2,3.08-3.3,8.17-.22,11.37,3.08,3.2,8.16,3.3,11.36.22l34.84-33.49c3.2-3.08,3.3-8.16.22-11.37-3.08-3.2-8.16-3.3-11.37-.23Z"/>
      <path class="cls-2" d="M343.01,1096.8l-18.85,20.09c-3.04,3.24-2.87,8.33.36,11.37,3.24,3.04,8.33,2.87,11.36-.36l18.85-20.1c3.04-3.24,2.87-8.33-.36-11.37-3.24-3.04-8.32-2.87-11.36.37Z"/>
      <path class="cls-2" d="M392.48,1098.03l-17.64,28.13c-2.36,3.76-1.22,8.72,2.54,11.08,3.76,2.36,8.72,1.23,11.08-2.54l17.64-28.13c2.36-3.76,1.23-8.72-2.54-11.08-3.76-2.36-8.72-1.23-11.08,2.54Z"/>
      <path class="cls-2" d="M1055.45,816.61l-16.08,16.08c-3.14,3.13-3.14,8.23,0,11.37,3.14,3.14,8.23,3.14,11.37,0l16.08-16.08c3.14-3.14,3.14-8.23,0-11.37-3.14-3.14-8.23-3.14-11.37,0Z"/>
      <path class="cls-2" d="M1090.04,816.86l-14.73,16.08c-3,3.27-2.77,8.36.49,11.36,3.27,3,8.36,2.78,11.36-.49l14.74-16.07c3-3.28,2.77-8.36-.5-11.36-3.27-3-8.36-2.77-11.36.5Z"/>
    </g>
  </g>
</svg>